<?xml version="1.0" encoding="UTF-8" standalone="no"?>
<!-- Generator: Adobe Illustrator 22.1.0, SVG Export Plug-In . SVG Version: 6.00 Build 0)  -->

<svg
   xmlns:dc="http://purl.org/dc/elements/1.1/"
   xmlns:cc="http://creativecommons.org/ns#"
   xmlns:rdf="http://www.w3.org/1999/02/22-rdf-syntax-ns#"
   xmlns:svg="http://www.w3.org/2000/svg"
   xmlns="http://www.w3.org/2000/svg"
   xmlns:sodipodi="http://sodipodi.sourceforge.net/DTD/sodipodi-0.dtd"
   xmlns:inkscape="http://www.inkscape.org/namespaces/inkscape"
   version="1.1"
   id="Ebene_1"
   x="0px"
   y="0px"
   viewBox="0 0 1000 1000"
   xml:space="preserve"
   sodipodi:docname="image.svg"
   inkscape:version="0.92.2 2405546, 2018-03-11"
   style="enable-background:new 0 0 1000 1000;"
   inkscape:export-filename="/home/piegames/Documents/Eclipse/workspace/VoicePi/icons_raw/image.svg.png"
   inkscape:export-xdpi="98.208"
   inkscape:export-ydpi="98.208"><metadata
   id="metadata43"><rdf:RDF><cc:Work
       rdf:about=""><dc:format>image/svg+xml</dc:format><dc:type
         rdf:resource="http://purl.org/dc/dcmitype/StillImage" /><dc:title></dc:title></cc:Work></rdf:RDF></metadata><defs
   id="defs41" /><sodipodi:namedview
   pagecolor="#ffffff"
   bordercolor="#666666"
   borderopacity="1"
   objecttolerance="10"
   gridtolerance="10"
   guidetolerance="10"
   inkscape:pageopacity="0"
   inkscape:pageshadow="2"
   inkscape:window-width="1920"
   inkscape:window-height="990"
   id="namedview39"
   showgrid="false"
   inkscape:zoom="0.57448482"
   inkscape:cx="204.13985"
   inkscape:cy="502.07034"
   inkscape:window-x="0"
   inkscape:window-y="0"
   inkscape:window-maximized="1"
   inkscape:current-layer="layer6"
   showguides="false" />
<style
   type="text/css"
   id="style2">
	.st0{fill:#FFFFFF;}
</style>
<g
   inkscape:groupmode="layer"
   id="layer6"
   inkscape:label="Mic"><path
     style="fill:#606060;fill-opacity:1;stroke:none;stroke-width:0.83691478;stroke-opacity:1"
     d="m 748.11819,655.65214 c -10.83743,-0.077 -22.55367,0.59285 -30.63618,1.97055 -40.62943,6.92542 -81.09377,23.95649 -144.0548,60.63294 -37.0597,21.58823 -67.4093,41.77041 -154.41161,102.69085 -97.28419,68.11996 -112.90785,78.27056 -146.87859,95.41969 -30.05438,15.17207 -52.7508,23.51197 -77.41421,28.44522 -37.29833,7.46055 -60.77448,4.65597 -70.22379,-8.38845 -3.85062,-5.31562 -4.54448,-8.405 -4.02619,-17.90292 1.12852,-20.68049 13.02228,-52.10179 28.85329,-76.22272 8.4465,-12.86952 12.43574,-17.61313 30.3132,-36.03715 16.55319,-17.05928 18.60279,-20.17417 19.12715,-29.07807 0.57078,-9.69251 -3.10973,-15.97138 -10.69287,-18.24335 -4.51678,-1.35326 -9.82673,-0.35213 -16.8991,3.18604 -7.04258,3.52326 -18.8638,14.81173 -31.80584,30.3743 -31.69762,38.11578 -48.709082,70.79777 -55.877894,107.35426 -2.941522,14.99992 -3.110399,18.90319 -1.27878,29.48177 1.865617,10.77494 3.451862,15.86316 7.225326,23.17952 9.81525,19.03074 29.345228,30.75021 58.836978,35.30612 10.20504,1.57651 18.17724,1.59454 30.57288,0.0698 46.57495,-5.72887 93.90625,-24.78319 158.57092,-63.83862 28.76303,-17.37197 50.49572,-32.21263 122.18897,-83.43714 75.34405,-53.833 93.03153,-65.91393 119.67942,-81.74591 58.41409,-34.70482 118.11616,-59.36583 153.76785,-63.51565 11.62884,-1.35358 30.06014,-0.56755 38.50525,1.64321 15.12612,3.95969 23.26631,8.56528 34.18446,19.34318 12.82372,12.65901 17.50139,22.96611 17.50139,38.55544 0,17.37434 -6.06833,31.7016 -26.56851,62.7126 -8.98839,13.59693 -19.80272,28.34796 -34.05134,46.44852 -11.78149,14.96646 -16.44738,26.487 -13.8789,34.26957 2.39127,7.24562 9.68305,11.91262 17.44901,11.16641 10.02715,-0.96348 19.00682,-8.92251 35.20792,-31.20791 27.0582,-37.2199 48.49633,-73.42384 55.6313,-93.95106 9.09058,-26.15348 7.43143,-50.00392 -4.96455,-71.3651 -16.40801,-28.27486 -47.35275,-49.22059 -82.38748,-55.7666 -5.23915,-0.9789 -13.13559,-1.4895 -21.56468,-1.54937 z"
     id="path4703"
     inkscape:connector-curvature="0"
     sodipodi:nodetypes="scsssscssscsssssccssssssssssssssscs" /><path
     d="m 216.77101,773.06964 c -8.93683,-6.40622 -21.93344,-20.85373 -34.23061,-33.03674 -11.41884,-11.31281 -7.52909,-22.12608 1.84923,-36.14324 69.30058,-103.57904 140.60808,-214.77632 211.66011,-317.15497 12.77664,-18.40982 20.75787,-9.53804 31.4815,-0.39248 33.53327,28.59858 81.3611,66.46851 111.69113,98.43828 15.31695,16.14504 -2.72527,25.56149 -14.16581,36.20201 -89.74435,83.46864 -232.15522,208.91338 -281.40168,248.37501 -10.13035,8.11754 -18.26061,9.89357 -26.88387,3.71213 z"
     id="path12"
     inkscape:connector-curvature="0"
     sodipodi:nodetypes="sssssssss"
     style="stroke-width:1.11729598" /></g><g
   inkscape:groupmode="layer"
   id="layer2"
   inkscape:label="RaspberryBorder"><path
     style="fill:#f2c4e9;fill-opacity:1;stroke:#f2c4e9;stroke-width:16.75943947;stroke-miterlimit:4;stroke-dasharray:none;stroke-opacity:1"
     d="m 591.49392,404.94172 c 1.47292,1.40282 2.05057,3.49888 3.15874,5.1884 0.48865,0.72619 0.99261,1.44115 1.51129,2.14453 9.84555,13.35158 24.99402,22.53071 41.39291,25.11958 9.50091,1.51685 18.99748,3.33644 28.57869,4.17819 14.31527,-0.11793 34.5861,-12.93386 38.19536,-16.22403 2.51984,-2.70582 9.71965,-11.66179 11.92786,-13.16558 3.79589,-2.58501 6.90536,-3.27427 11.90354,-3.82525 9.16721,-1.01055 18.44279,-0.55857 27.65246,-0.99369 8.80361,-0.87873 17.92842,0.32337 26.43345,-2.56789 8.26318,-2.49589 11.54619,-11.12766 17.45388,-16.56685 6.49142,-5.05534 13.14387,-10.94067 15.3008,-19.23154 2.34048,-11.17052 2.44341,-19.84398 4.45353,-33.91411 3.1456,-22.01809 2.82192,-16.83299 10.78725,-30.20502 8.23291,-14.393 16.20129,-28.95263 24.86496,-43.10085 4.78729,-6.7913 8.21562,-15.20137 6.21281,-23.60496 -5.10537,-17.7247 -10.55589,-35.36931 -15.76116,-53.07397 -3.25154,-11.05946 -5.32137,-11.5599 -7.67528,-30.01748 -2.34038,-18.35142 -6.38033,-36.47836 -9.85801,-54.65558 -1.65052,-9.427289 -9.41906,-15.574148 -15.44579,-22.298672 -13.60123,-14.822071 -30.62279,-28.828661 -51.36015,-30.721215 -15.67808,-1.43082 -30.80416,-4.709235 -46.32248,-5.945813 -6.73035,-0.536302 -13.5429,0.180767 -20.24508,-0.635384 -18.00256,-2.192224 -35.49029,-7.492151 -53.20025,-11.393659 -7.96947,-2.132683 -16.98203,-3.397206 -24.3456,1.31337 -13.89911,9.416671 -27.98392,18.609447 -41.3804,28.734282 -4.57491,3.457652 -14.56917,10.392641 -22.6321,14.157034 -3.672,1.714368 -7.53144,3.329162 -11.56073,3.762204 -18.97257,2.039043 -28.72163,3.486142 -39.6953,11.427368 -9.64907,6.039644 -17.02331,14.883525 -23.55643,24.048545 -4.16981,3.90903 -7.22303,9.15117 -7.57749,14.94511 -0.26508,7.91517 0.98209,15.80837 1.24083,23.7199 0.98056,8.44089 1.25518,16.8971 -0.63785,25.02335 -1.17579,5.04735 -4.03564,9.56552 -6.51317,14.11744 -1.87313,3.44147 -3.81238,5.72449 -6.28989,9.93017 -7.26365,11.74004 -14.55532,25.0459 -12.7195,39.35298 2.0315,10.57847 4.31283,21.1829 8.04854,31.31929 5.41261,14.78094 10.27742,21.53192 18.48531,29.89083 3.81234,3.88253 9.56988,5.32406 13.72472,8.83767 4.60572,3.89493 8.79784,8.38658 12.18748,13.37593 5.72953,8.43357 9.07415,18.26835 13.42956,27.48125 4.47285,7.70169 7.03027,16.67315 13.11583,23.32787 6.78146,6.54041 16.60231,7.86048 24.90974,11.66298 9.70921,3.32021 19.334,6.85775 29.02023,10.33343 4.86117,1.74435 9.04699,5.18798 12.78689,8.74984 z"
     id="path63"
     inkscape:connector-curvature="0"
     sodipodi:nodetypes="scscccssccccscccssccsaaccsssccccaacccaaacccss" /></g><g
   inkscape:groupmode="layer"
   id="layer1"
   inkscape:label="Raspberry"><path
     d="m 738.36229,248.08956 c -5.90026,-1.1244 -11.80051,-2.2488 -17.81249,-3.37546 -16.80935,-3.24353 -33.73041,-2.60022 -50.53978,-5.84375 -2.67198,-0.50074 -5.29986,-1.25446 -7.89525,-1.94678 -8.28976,-2.05983 -10.2623,-2.63962 -12.83028,-11.36726 -0.70872,-2.4087 -1.46956,-4.72313 -2.20435,-7.0847 -5.50495,-20.78484 -7.82792,-43.33745 -13.33062,-64.23399 -0.51812,-2.02196 -0.92226,-4.15338 -1.10301,-6.2803 -0.26774,-3.35794 1.23612,-5.89801 4.17644,-7.62693 1.01883,-0.65002 2.03542,-1.18834 3.16373,-1.72442 20.78094,-10.86914 41.55739,-21.51485 62.34057,-32.4957 4.06638,-2.15328 7.41085,-1.75078 10.82437,0.7764 1.32026,1.03232 2.64052,2.06463 3.84685,3.20641 17.98978,16.78928 35.97732,33.69028 53.85539,50.47731 0.1095,0.11401 0.22117,0.11625 0.21893,0.22791 6.68834,6.3926 7.51686,9.65008 3.99045,18.29584 -8.11207,19.95229 -16.22414,39.90458 -24.44568,59.74291 -0.35308,0.88691 -0.81789,1.77158 -1.16872,2.54679 -1.94355,4.16973 -4.87922,6.5192 -9.17628,6.74068 -0.60906,0.0314 -1.24546,0.02 -1.91027,-0.0351 z"
     id="path14"
     inkscape:connector-curvature="0"
     sodipodi:nodetypes="ccccscccccccccccccscc"
     style="fill:#e600bf;fill-opacity:1;stroke-width:1.11729598" /><path
     style="fill:#e600bf;fill-opacity:1;stroke-width:1.11729598"
     d="m 695.23566,253.26916 c 13.46328,0.71953 25.65969,3.47573 38.99678,5.68908 8.51735,2.40433 7.97335,13.23905 11.35566,19.8843 3.21929,10.16253 7.45543,20.01101 10.39622,30.24365 2.01995,8.75241 -3.81296,16.22258 -9.34986,22.24872 -12.12128,14.06079 -23.77702,28.55484 -36.46165,42.10903 -5.69391,5.88993 -14.22375,3.52276 -21.39602,3.13051 -15.78054,-1.42796 -31.66031,-1.98756 -47.36696,-4.08032 -8.33013,-0.0759 -11.65004,-8.00644 -13.59075,-14.7862 -6.35429,-17.47925 -13.36415,-34.74211 -19.25238,-52.37696 -3.14468,-7.36973 0.38505,-14.90413 6.75071,-19.09226 10.78508,-9.41083 18.46665,-23.41165 29.44237,-32.58425 7.04264,-4.01199 18.02514,-1.37133 25.75028,-1.58358 8.53939,-0.18943 17.64516,0.55438 24.7256,1.19828 z"
     id="path16"
     inkscape:connector-curvature="0"
     sodipodi:nodetypes="cccccccccccccc" /><path
     style="fill:#e600bf;fill-opacity:1;stroke-width:1.11729598"
     d="m 507.51972,201.76454 c -0.28421,-7.67333 3.19531,-15.075 9.20349,-19.82113 13.71334,-13.12071 30.87448,-31.21956 44.92619,-43.9689 6.09224,-5.09117 13.33939,-3.06347 20.29133,-1.13643 13.5806,3.14081 23.92686,3.252 35.62055,9.47507 6.01155,3.19942 5.79981,6.51213 7.61537,21.74433 2.32335,19.49255 8.06304,39.71106 10.25567,59.21571 0.89147,8.77813 -0.89989,17.24733 -6.6672,23.90289 -7.53837,10.05896 -18.4927,20.16276 -26.51322,29.83406 -4.6789,5.57666 -12.59888,5.0726 -18.74271,2.59522 -19.5609,-5.57452 -39.24263,-10.76641 -58.73784,-16.55109 -7.94597,-2.54996 -8.79325,-11.71911 -9.68644,-18.7108 -2.27448,-15.55817 -5.93862,-30.94228 -7.56519,-46.57893 z"
     id="path18"
     inkscape:connector-curvature="0"
     sodipodi:nodetypes="ccccssccccccc" /><path
     style="fill:#e600bf;fill-opacity:1;stroke-width:1.11729598"
     d="m 803.49666,310.08063 c -8.52337,-1.11115 -17.37704,-0.73406 -25.63647,-3.30926 -6.74026,-1.80114 -4.5183,-3.14533 -15.98155,-28.5455 -3.30004,-9.55488 -5.71791,-9.79862 -3.11399,-20.27597 7.67116,-27.75924 20.85464,-50.80972 29.05449,-78.41727 1.83758,-6.8112 9.11745,-9.43058 15.53081,-8.98627 9.97805,-0.34921 19.98394,-1.50578 29.96042,-0.99531 8.2131,0.29172 10.56214,9.02608 12.25051,15.54784 5.14806,17.72137 10.65546,35.34982 15.76083,53.07452 2.0028,8.40359 -1.42423,16.81329 -6.21153,23.60459 -8.66366,14.14822 -16.63317,28.70857 -24.86608,43.10156 -3.61567,6.42365 -11.45197,7.26349 -17.95842,5.77067 -2.92278,-0.28372 -5.85671,-0.42683 -8.78902,-0.5696 z"
     id="path20"
     inkscape:connector-curvature="0"
     sodipodi:nodetypes="ccccccccccccc" /><path
     style="fill:#e600bf;fill-opacity:1;stroke-width:1.11729598"
     d="m 563.98588,72.373332 c -1.40331,-7.14589 7.65385,-8.872057 11.74179,-12.893719 13.83167,-9.521685 27.48109,-19.318248 41.38018,-28.73493 7.36357,-4.710576 16.3766,-3.446858 24.34607,-1.314175 17.70995,3.901508 35.5335,7.33021 53.20042,11.394922 4.93151,1.0659 7.98157,5.810821 7.6157,10.701561 0.70225,12.04006 1.99104,24.062097 2.17057,36.118916 0.10692,6.982441 -8.44254,10.879973 -13.19972,13.572083 -8.15175,3.98657 -43.18229,21.26732 -58.8023,28.54326 -5.92017,2.65094 -17.91109,5.63126 -23.43747,4.63653 -6.67276,-1.15103 -27.33098,-5.09229 -33.35801,-8.20044 -5.37962,-4.11677 -6.45746,-18.04746 -8.15581,-23.98697 -1.79425,-9.851083 -3.20186,-19.818335 -3.50142,-29.837038 z"
     id="path22"
     inkscape:connector-curvature="0"
     sodipodi:nodetypes="ccccccccccccc" /><path
     style="fill:#e600bf;fill-opacity:1;stroke-width:1.11729598"
     d="m 714.34891,44.314846 c 3.77874,-6.853404 31.172,1.94234 46.87333,3.090407 20.70964,2.174928 37.75775,15.898976 51.359,30.721047 6.02673,6.724524 13.79645,12.872489 15.44697,22.29979 3.47769,18.17722 7.10545,36.362 9.85779,54.65617 -0.53124,6.62151 -8.97742,4.26447 -13.55142,5.12527 -10.71978,0.35295 -21.45328,1.30208 -32.17521,1.058 -10.10426,-0.95605 -16.18602,-9.94289 -23.47925,-15.86729 -15.52578,-14.22888 -31.34103,-28.16099 -46.4881,-42.79094 -9.05569,-8.175898 -8.84179,-21.210776 -9.48127,-32.424584 -0.0766,-8.561034 -1.6668,-19.404224 1.63816,-25.86787 z"
     id="path24"
     inkscape:connector-curvature="0"
     sodipodi:nodetypes="ccccccccccc" /><path
     style="fill:#e600bf;fill-opacity:1;stroke-width:1.11729598"
     d="m 578.7079,396.1919 c -10.04893,-2.21866 -19.31165,-7.0128 -29.02085,-10.33301 -8.30743,-3.80249 -18.12667,-5.12148 -24.90812,-11.66187 -6.08557,-6.65473 -8.64405,-15.62703 -13.11689,-23.32873 -4.35541,-9.2129 -9.89137,-17.90785 -13.42842,-27.48165 -2.52647,-7.91053 3.63998,-14.57941 6.55855,-21.37806 3.97068,-7.30267 6.83293,-15.27917 11.60681,-22.09567 5.41733,-4.71465 12.6141,0.048 18.53436,1.30443 16.70692,5.28746 33.5481,10.20312 50.12562,15.86633 7.45587,2.4924 11.8117,9.51896 14.194,16.60121 7.34387,18.54937 15.14864,36.93228 22.25733,55.56448 0.87433,6.73408 -8.50417,8.0729 -12.41788,11.96623 -7.41401,4.48028 -14.37061,9.8583 -22.2756,13.44286 -2.59147,0.96326 -5.34605,1.47296 -8.10891,1.53345 z"
     id="path26"
     inkscape:connector-curvature="0" /><path
     style="fill:#e600bf;fill-opacity:1;stroke-width:1.11729598"
     d="m 541.53442,77.397767 c 4.11815,-0.0524 10.3324,-0.172555 10.62056,5.354149 2.48737,11.987938 5.76646,23.848604 7.3299,36.003454 0.64769,9.35554 -6.85577,16.1247 -12.89043,22.14081 -13.68229,13.67918 -27.14882,27.58554 -41.0164,41.07258 -8.67875,8.02544 -24.07533,5.01963 -29.7307,-5.11681 -4.16528,-7.73462 -2.92052,-16.87141 -3.90109,-25.3123 -0.25875,-7.91152 -1.50615,-15.80482 -1.24107,-23.71999 0.35449,-5.79394 3.40858,-11.03738 7.57838,-14.94639 6.53312,-9.16504 13.90634,-18.00791 23.5554,-24.047543 11.72501,-7.682952 25.77206,-11.199853 39.69545,-11.42796 z"
     id="path28"
     inkscape:connector-curvature="0" /><path
     style="fill:#e600bf;fill-opacity:1;stroke-width:1.11729598"
     d="m 780.55795,317.10681 c 12.33127,1.87195 24.7354,3.27131 37.01175,5.49784 4.57615,2.57636 2.68633,8.38601 1.88733,12.47929 -1.46096,11.28007 -2.1134,22.74405 -4.45388,33.91458 -2.15692,8.29087 -8.80826,14.17472 -15.29969,19.23005 -5.90768,5.43919 -9.19095,14.07251 -17.45413,16.56839 -8.50501,2.89126 -17.63016,1.68842 -26.43377,2.56714 -9.20967,0.43512 -18.43387,1.23494 -27.65346,0.99391 -6.39231,-0.74876 -9.0836,-7.25873 -10.52539,-12.68825 -1.94062,-5.68927 -3.49273,-12.55497 0.4373,-17.7857 4.08935,-5.74883 9.32094,-10.57501 13.80954,-16.00726 12.30856,-13.64924 24.14889,-27.74588 36.74472,-41.12004 3.28454,-2.7325 7.67731,-4.08435 11.92972,-3.64996 z"
     id="path30"
     inkscape:connector-curvature="0" /><path
     style="fill:#e600bf;fill-opacity:1;stroke-width:1.11729598"
     d="m 593.79331,402.73248 c 2.58535,-4.35543 18.23931,-13.04343 29.78687,-18.49685 9.85159,-4.04304 20.57474,-1.65711 30.80741,-1.02183 15.87559,1.40429 31.74116,2.93555 47.62348,4.25483 4.58517,1.05628 4.47284,6.8385 6.45264,10.27713 1.87341,5.29986 4.70152,10.35695 5.58685,15.94084 0.22318,5.80524 -5.91765,8.47458 -9.71881,11.66312 -11.28024,7.98825 -23.88093,16.10498 -38.1962,16.22291 -9.58122,-0.84175 -19.07604,-2.6603 -28.57695,-4.17716 -17.26282,-2.72527 -28.71866,-12.03929 -40.78354,-24.70179 -3.0527,-3.28051 -5.01108,-6.54247 -2.98175,-9.9612 z"
     id="path32"
     inkscape:connector-curvature="0"
     sodipodi:nodetypes="scccccccccs" /><path
     style="fill:#e600bf;fill-opacity:1;stroke-width:1.11729598"
     d="m 509.1891,271.92338 c -3.7916,11.87668 -8.16695,20.37251 -16.04949,33.3412 -2.583,4.24966 -7.12197,6.14808 -11.09062,3.31532 -14.09861,-7.87196 -22.80242,-22.51746 -28.21502,-37.29839 -3.73571,-10.13641 -6.01694,-20.73968 -8.04842,-31.31814 -1.83581,-14.30708 5.45629,-27.61335 12.71995,-39.35339 2.4775,-4.20568 5.48372,-9.03833 10.82917,-9.64223 7.91799,-0.80752 16.05262,1.35846 22.92062,5.2537 5.33246,4.13151 5.16912,11.49693 6.9699,17.43052 3.75034,15.86646 9.03349,40.98579 10.50498,50.68179 0.511,3.36713 0.33728,4.83832 -0.54107,7.58962 z"
     id="path34"
     inkscape:connector-curvature="0"
     sodipodi:nodetypes="sscccccccss" /></g><g
   inkscape:groupmode="layer"
   id="layer4"
   inkscape:label="Leaves"><path
     style="fill:#61e077;fill-opacity:1;stroke:#257e34;stroke-width:5.58647966;stroke-linecap:round;stroke-linejoin:round;stroke-miterlimit:4;stroke-dasharray:none;stroke-opacity:1"
     d="m 422.11374,446.08894 c 21.37065,-10.71575 43.6902,-20.39948 63.0328,-34.5086 3.98009,-5.85724 -4.52198,-9.31076 -8.72562,-10.88793 -24.29273,-11.73325 -49.40645,-22.7898 -73.18256,-34.94691 4.25517,-1.40234 9.49546,1.92485 14.05895,1.82364 24.16321,4.3025 48.13755,10.36541 72.51343,13.08066 6.90659,-1.16877 6.85867,-9.67605 4.78678,-14.77421 -3.20988,-18.5968 -11.43071,-38.61334 -29.66405,-46.93877 -28.10786,-14.26178 -55.9086,-29.13929 -84.13774,-43.16933 -9.06246,-6.46502 -18.75582,1.54702 -24.89117,8.0518 -18.69981,15.66108 -38.70836,30.0517 -56.01245,47.27207 -4.66993,8.19658 5.07167,14.64536 10.45066,19.09775 36.41983,31.88818 72.88783,63.71833 109.34849,95.56082 0.80776,-0.0366 1.61366,0.93768 2.42248,0.33901 z"
     id="path6"
     inkscape:connector-curvature="0" /><g
     id="g36"
     transform="matrix(1.117296,0,0,1.117296,21.311533,-104.94725)">
	
	
	<path
   style="fill:#61e077;fill-opacity:1;stroke:#257e34;stroke-width:5;stroke-linecap:round;stroke-linejoin:round;stroke-miterlimit:4;stroke-dasharray:none;stroke-opacity:1"
   d="m 505.29101,629.4229 c 13.21958,-13.98032 22.75744,-31.68439 34.49632,-46.96622 4.99607,-7.73061 12.53725,-14.68544 14.56085,-23.88027 0.12218,-10.46425 -9.26288,-17.40171 -13.44156,-26.2638 -13.86178,-20.96664 -25.6326,-43.45078 -41.19052,-63.22167 -12.1352,-11.56542 -30.19859,-14.19264 -46.20836,-13.70903 -6.72726,3.60756 -1.7136,12.10239 -0.58701,17.40646 6.0905,21.5115 13.51936,43.02093 18.85634,64.49688 -4.96784,0.82333 -5.69307,-6.59571 -8.23755,-9.46831 -11.58328,-20.31232 -21.87608,-41.56356 -34.3979,-61.21598 -6.56363,-3.21538 -10.29668,5.08766 -11.87358,10.05674 -6.3005,15.94637 -14.3685,31.33621 -19.4992,47.66257 0.32879,9.48635 10.73623,13.2592 15.80219,20.01902 30.065,28.28386 59.27323,57.66172 89.97205,85.15786 0.58214,0.28345 1.1671,0.0991 1.74793,-0.0743 z m -2.79833,-0.82985 c 1.61125,0.0393 0.0572,0.52871 0,0 z m 2.30383,-0.3229 c -0.004,0.41362 -1.16668,0.3118 0,0 z"
   id="path8"
   inkscape:connector-curvature="0" />
	
	
	
	
	
	
	
	
	
	
	
	
	
</g></g>
</svg>